<svg width="62px" height="66px" viewBox="0 0 62 66" version="1.1" xmlns="http://www.w3.org/2000/svg" xmlns:xlink="http://www.w3.org/1999/xlink">
<!-- Generator: Sketch 48.2 (47327) - http://www.bohemiancoding.com/sketch -->
<desc>Created with Sketch.</desc>
<defs>
<polygon id="path-1" points="0 67 61.9012817 67 61.9012817 0.111975608 0 0.111975608"></polygon>
</defs>
<g id="Symbols" stroke="none" stroke-width="1" fill="none" fill-rule="evenodd">
<g id="Nav-on-scroll" transform="translate(0.000000, -25.000000)">
<g id="Page-1" transform="translate(0.000000, 25.000000)">
<polygon id="Fill-1" fill="#FEFEFE" points="0 66 62 66 62 0 0 0"></polygon>
<path d="M0,66 L62,66 L62,0 L0,0 L0,66 Z M1.50136856,64.39567 L60.4986314,64.39567 L60.4986314,1.59761105 L1.50136856,1.59761105 L1.50136856,64.39567 Z" id="Fill-2" fill="#1D1D1B"></path>
<g id="Group-35">
<path d="M18.4069742,34.877527 C17.7579538,35.227829 17.6767387,35.5675388 18.0821139,35.9185975 C18.0198024,35.9352425 25.0112992,35.9133013 25.0547072,35.9185975 C25.0547072,35.9185975 25.5482988,35.3155937 25.0610084,34.614233 L27.3336299,29.1773632 C27.3336299,29.1773632 24.3258721,27.7980961 22.5279386,25.9278008 C21.5540579,28.6469923 19.0559946,34.5264683 18.4069742,34.877527 Z M29.9304116,4.62292812 C28.3887257,4.62292812 15.9726227,10.9359313 15.9726227,10.9359313 C15.9726227,10.9359313 16.2288702,10.1006538 15.8921077,9.21544125 C15.5826503,8.40513127 14.2538039,8.0177562 14.2538039,8.0177562 C14.2538039,8.0177562 13.8960375,9.79953024 14.3021128,10.4131263 C14.707488,11.027479 15.2416871,11.4632759 15.2416871,11.4632759 C15.2416871,11.4632759 14.2678064,11.4632759 14.1872915,12.3394094 C14.1060764,13.2162995 14.6738818,14.3564835 13.4570561,15.2333736 C12.2395302,16.1102637 10.9771961,16.2963853 9.53212806,15.1516617 C9.91719948,18.2226684 8.72277793,19.2115341 7.74959743,19.2115341 C6.53207159,18.2476359 5.26063576,16.2865496 4.61091525,12.7782327 C3.46130202,14.6833313 4.93577551,20.494714 6.15330134,22.5117882 C5.66601095,23.4779561 5.60649992,24.9026187 6.54467393,25.7726995 C7.21959912,26.3976444 8.2788956,25.9285574 8.2788956,25.9285574 C8.2788956,25.9285574 9.1463565,26.570904 10.6880425,26.657912 C12.2304285,26.7449201 18.7318345,25.4942736 19.3808548,22.3370154 L19.9871673,22.5443216 C19.9871673,22.5443216 19.6497047,23.3251245 20.3351318,23.5067066 C20.8658303,23.6459195 21.3286161,23.1268974 21.3286161,23.1268974 C21.3286161,23.1268974 25.1275207,28.2732358 30.4982169,29.2643713 L30.6795506,30.2048151 L29.4228175,30.006588 C29.4228175,30.006588 28.1835876,33.898497 27.4533522,34.5136062 C26.7231167,35.1264457 26.4234611,35.6553035 26.7658246,35.9185975 L31.10803,35.9185975 L31.10803,39.5941212 L2.93410423,39.5941212 L2.93410423,3.37606459 L31.10803,3.37606459 L31.10803,4.9543154 C30.5962351,4.7470092 30.1810581,4.62292812 29.9304116,4.62292812 Z" id="Fill-3" fill="#1D1D1B"></path>
<path d="M31.1327446,35.9185975 L33.8100412,35.9185975 C33.8100412,35.9185975 34.3281373,35.4926362 34.0039772,34.877527 C33.6791169,34.2639309 35.6268782,29.8794805 35.6268782,29.8794805 C35.6268782,29.8794805 43.2547931,29.7909593 48.0429812,26.6344577 L47.0691006,24.7051482 L47.8000361,24.5288623 L51.2082683,30.668606 C51.2082683,30.668606 50.1531726,33.7373429 49.6658822,34.2639309 C49.179292,34.7897623 48.2012105,34.7806832 48.4980656,35.9185975 L56.0454655,35.9185975 C56.0454655,35.9185975 56.5642618,35.3163503 55.9964564,34.7897623 C56.807907,32.9482175 57.9435176,30.755614 57.9435176,29.8794805 C57.9435176,29.0018339 56.3206166,27.7738852 56.3206166,27.073281 C56.3206166,26.3711637 58.9986133,22.2500073 58.8361832,20.6717565 C58.6744532,19.0919925 57.6193575,16.7246163 56.9696369,14.6205341 C54.6165005,11.9883507 50.1531726,6.99030433 48.1241963,6.90253966 C46.0952199,6.814775 42.2003975,9.18215121 40.4150663,9.26991587 C39.1926396,9.32968664 33.7533307,6.02791937 31.1145412,4.9543154 L31.1327446,35.9185975 Z" id="Fill-5" fill="#1D1D1B"></path>
<path d="M22.3349828,16.9490972 L22.9840032,17.7382226 C23.0295116,17.487034 22.9826029,20.9060731 20.8745119,22.2982022 L20.3067066,21.5975981 C20.3067066,21.5975981 21.2798871,20.7199514 21.7671775,19.580524 C22.2537677,18.4395833 22.3349828,16.9490972 22.3349828,16.9490972" id="Fill-7" fill="#1D1D1B"></path>
<path d="M40.7731828,35.9185975 C40.7731828,35.9185975 40.343303,35.6250398 40.3993134,35.2285856 C40.5120343,34.4273548 41.5356242,34.614233 41.9409994,33.7373429 C42.3470747,32.8604528 43.0885122,30.8978533 43.5912055,29.4754604 C46.5793597,28.6038665 48.403198,27.3085811 48.403198,27.3085811 L49.7712518,29.7304319 C49.7712518,29.7304319 47.6218531,34.0884016 47.540638,34.5264683 C47.459423,34.9652916 48.0965411,35.0069042 47.9467133,35.9185975 C47.9467133,35.9185975 40.8670002,35.9155711 40.7731828,35.9185975" id="Fill-9" fill="#1D1D1B"></path>
<path d="M12.4015403,19.0925222 C12.4015403,19.0925222 13.6190661,19.4428242 14.6741618,18.3033968 C13.8620112,18.4781695 13.5791587,18.4827091 13.1933872,18.3798125 C12.6367839,18.2284942 12.4015403,19.0925222 12.4015403,19.0925222" id="Fill-11" fill="#1D1D1B"></path>
<path d="M9.67243408,42.6104263 L8.88058721,45.060271 C8.36249111,44.3029225 7.76738072,43.9238699 7.09525606,43.9238699 C6.72138671,43.9238699 6.53445204,44.0767015 6.53445204,44.3831212 C6.53445204,44.4784518 6.59326294,44.574539 6.71088476,44.6736525 C6.82850658,44.7712529 7.13726385,44.9263542 7.63645644,45.1366868 C8.18675851,45.3704737 8.60963695,45.5845892 8.90649201,45.776007 C9.20334707,45.9674248 9.42598837,46.2133171 9.57371577,46.5114144 C9.72074304,46.8102682 9.79495681,47.1583005 9.79495681,47.5547547 C9.79495681,48.3870058 9.50230252,49.0217865 8.91839422,49.4575834 C8.33448591,49.8926238 7.47472644,50.1112789 6.34121619,50.1112789 C5.0683801,50.1112789 3.97197674,49.9160781 3.0520061,49.5264333 L3.82915025,46.9282965 C4.05529219,47.3081057 4.33604427,47.6107425 4.67000621,47.8346937 C5.00466829,48.0586449 5.32602789,48.1721337 5.63408503,48.1721337 C5.78461295,48.1721337 5.91133646,48.1282514 6.01355542,48.0442697 C6.11507425,47.9587748 6.16618373,47.8558783 6.16618373,47.7333104 C6.16618373,47.6175518 6.11717464,47.507846 6.01845633,47.4026797 C5.91903789,47.2967568 5.65788945,47.1507346 5.23361075,46.964613 C4.84993959,46.7981627 4.53278076,46.6354955 4.28143414,46.4781243 C4.03008752,46.3199966 3.811647,46.0952888 3.62681272,45.8040009 C3.4412783,45.5111998 3.34886116,45.1442527 3.34886116,44.6986201 C3.34886116,43.8361052 3.63941505,43.1861928 4.22052284,42.7488826 C4.80163063,42.3108159 5.65928971,42.0914042 6.79350008,42.0914042 C7.82969228,42.0914042 8.78957032,42.2646638 9.67243408,42.6104263" id="Fill-13" fill="#1D1D1B"></path>
<path d="M14.0164598,46.8374298 L15.1940783,46.8374298 L14.605269,44.9073638 L14.0164598,46.8374298 Z M13.0222754,49.9840958 L9.83668455,49.9840958 L12.3340478,42.2138964 L16.8715894,42.2138964 L19.3696528,49.9840958 L16.1882627,49.9840958 L15.7737858,48.6706521 L13.4367523,48.6706521 L13.0222754,49.9840958 Z" id="Fill-15" fill="#1D1D1B"></path>
<polygon id="Fill-17" fill="#1D1D1B" points="26.0841082 42.2136695 23.6434555 49.9838688 20.5565829 49.9838688 18.1110293 42.2136695 21.2868184 42.2136695 22.0975687 44.830721 22.9083191 42.2136695"></polygon>
<polygon id="Fill-19" fill="#1D1D1B" points="32.4594907 48.0336774 32.4594907 49.9834148 26.4894834 49.9834148 26.4894834 42.2139721 32.4594907 42.2139721 32.4594907 44.1637096 29.6701733 44.1637096 29.6701733 45.1260945 31.6116334 45.1260945 31.6116334 47.0765886 29.6701733 47.0765886 29.6701733 48.0336774"></polygon>
<polygon id="Fill-21" fill="#1D1D1B" points="36.8257106 45.6552549 36.8257106 42.2135182 43.2150957 42.2135182 43.2150957 45.6552549 41.6131986 45.6552549 41.6131986 49.9837175 38.4276077 49.9837175 38.4276077 45.6552549"></polygon>
<polygon id="Fill-23" fill="#1D1D1B" points="47.1064875 49.9834905 43.9208966 49.9834905 43.9208966 42.2132912 47.1064875 42.2132912 47.1064875 45.0595901 48.7272881 45.0595901 48.7272881 42.2132912 51.912879 42.2132912 51.912879 49.9834905 48.7272881 49.9834905 48.7272881 47.0970922 47.1064875 47.0970922"></polygon>
<polygon id="Fill-25" fill="#1D1D1B" points="58.6374163 48.0336774 58.6374163 49.9834148 52.667409 49.9834148 52.667409 42.2139721 58.6374163 42.2139721 58.6374163 44.1637096 55.8480989 44.1637096 55.8480989 45.1260945 57.789559 45.1260945 57.789559 47.0765886 55.8480989 47.0765886 55.8480989 48.0336774"></polygon>
<path d="M7.78845463,54.750625 L7.78845463,56.9159912 L7.91797866,56.9159912 C8.74483203,56.9159912 9.15860877,56.5649325 9.15860877,55.8628152 C9.15860877,55.5677443 9.07459319,55.3089899 8.90656202,55.0857953 C8.73853086,54.8626006 8.45917904,54.750625 8.06780645,54.750625 L7.78845463,54.750625 Z M3.18720117,52.4369669 L9.98336175,52.4369669 C11.1602801,52.4369669 12.0851516,52.7577618 12.7579764,53.3985952 C13.4301011,54.0401852 13.7668635,54.8414161 13.7668635,55.8045576 C13.7668635,56.8645429 13.3712902,57.6945243 12.5808435,58.2945017 C13.7031517,59.6783084 14.373176,61.4737011 14.5916165,63.67841 L9.8132302,63.67841 C9.72711422,62.2590435 9.53037773,61.2104071 9.22302072,60.5332573 C8.91636384,59.8553509 8.43887528,59.5163977 7.78845463,59.5163977 L7.78845463,63.67841 L3.18720117,63.67841 L3.18720117,52.4369669 Z" id="Fill-27" fill="#1D1D1B"></path>
<polygon id="Fill-29" fill="#1D1D1B" points="20.8875343 63.6790153 16.2792795 63.6790153 16.2792795 52.4375721 20.8875343 52.4375721 20.8875343 56.5557021 23.2322692 56.5557021 23.2322692 52.4375721 27.840524 52.4375721 27.840524 63.6790153 23.2322692 63.6790153 23.2322692 59.5018712 20.8875343 59.5018712"></polygon>
<mask id="mask-2" fill="white">
<use xlink:href="#path-1"></use>
</mask>
<g id="Clip-32"></g>
<polygon id="Fill-31" fill="#1D1D1B" mask="url(#mask-2)" points="29.7681215 63.6778048 34.369375 63.6778048 34.369375 52.4371182 29.7681215 52.4371182"></polygon>
<polygon id="Fill-33" fill="#1D1D1B" mask="url(#mask-2)" points="46.6340399 63.7669313 43.1438925 63.7669313 40.9076777 60.2230546 40.9076777 63.6791666 36.3071244 63.6791666 36.3071244 52.4369669 39.599135 52.4369669 42.0257851 56.2380848 42.0257851 52.4369669 46.6340399 52.4369669"></polygon>
<path d="M53.7248851,56.5704556 C53.4294303,56.5704556 53.1836847,56.6809181 52.9890486,56.9048693 C52.7930123,57.1280639 52.6956942,57.4095161 52.6956942,57.7492259 C52.6956942,58.0881791 52.7930123,58.3688747 52.9890486,58.5920693 C53.1836847,58.815264 53.4294303,58.926483 53.7248851,58.926483 C54.0245407,58.926483 54.2723867,58.815264 54.4677229,58.5920693 C54.6637592,58.3688747 54.7610773,58.0881791 54.7610773,57.7492259 C54.7610773,57.4095161 54.6637592,57.1280639 54.4677229,56.9048693 C54.2723867,56.6809181 54.0245407,56.5704556 53.7248851,56.5704556 M53.7248851,63.8632454 C52.2392095,63.8632454 50.9789758,63.2988278 49.944884,62.1715058 C48.9107922,61.045697 48.3940963,59.671726 48.3940963,58.0511061 C48.3940963,56.4342691 48.9107922,55.0663509 49.944884,53.9435684 C50.9789758,52.8215425 52.2392095,52.2609079 53.7248851,52.2609079 C55.2154616,52.2609079 56.4777957,52.8215425 57.5118875,53.9435684 C58.5452792,55.0663509 59.0626752,56.4342691 59.0626752,58.0511061 C59.0626752,59.671726 58.5452792,61.045697 57.5118875,62.1715058 C56.4777957,63.2988278 55.2154616,63.8632454 53.7248851,63.8632454" id="Fill-34" fill="#1D1D1B" mask="url(#mask-2)"></path>
</g>
</g>
</g>
</g>
</svg>
